<svg version="1.0" preserveAspectRatio="xMidYMid meet" viewBox="62.00002500000001 74.99999820000001 250.50000000000003 207.74999501400004" zoomAndPan="magnify" xmlns:xlink="http://www.w3.org/1999/xlink" xmlns="http://www.w3.org/2000/svg" style="max-height: 500px" width="250.50000000000003" height="207.74999501400004"><defs><g/><clipPath id="4a0e2f2bc5"><path clip-rule="nonzero" d="M 0.492188 0.777344 L 244.601562 0.777344 L 244.601562 186.753906 L 0.492188 186.753906 Z M 0.492188 0.777344"/></clipPath><clipPath id="ce4c0c0595"><path clip-rule="nonzero" d="M 50 15.367188 L 194.640625 15.367188 L 194.640625 205.929688 L 50 205.929688 Z M 50 15.367188"/></clipPath><clipPath id="efceef3854"><rect height="102" y="0" width="104" x="0"/></clipPath><clipPath id="910dd7c0c3"><rect height="207" y="0" width="245" x="0"/></clipPath></defs><g transform="matrix(1, 0, 0, 1, 65, 76)"><g clip-path="url(#910dd7c0c3)"><g clip-path="url(#4a0e2f2bc5)"><path fill-rule="nonzero" fill-opacity="1" d="M 244.398438 103.136719 C 244.28125 103.957031 244.023438 104.730469 243.628906 105.460938 C 242.449219 107.9375 240.621094 109.875 238.449219 111.496094 C 235.859375 113.464844 233.019531 114.960938 229.933594 115.988281 C 228.257812 116.558594 226.792969 117.46875 225.542969 118.722656 C 221.539062 122.542969 217.867188 126.65625 214.523438 131.058594 C 213.664062 132.199219 212.941406 133.417969 212.355469 134.714844 C 209.292969 141.230469 205.429688 147.234375 200.761719 152.71875 C 197.953125 156.066406 195.1875 159.457031 192.019531 162.484375 C 192.074219 162.578125 192.132812 162.667969 192.1875 162.761719 C 193.878906 162.039062 195.558594 161.277344 197.265625 160.589844 C 200.3125 159.371094 203.164062 157.792969 205.820312 155.863281 C 209.636719 153.089844 214.128906 152.402344 218.664062 151.921875 C 219.644531 151.816406 220.625 151.714844 221.605469 151.671875 C 222.34375 151.640625 223.035156 151.828125 223.398438 152.566406 C 223.800781 153.386719 223.417969 154.042969 222.882812 154.644531 C 222.707031 154.851562 222.507812 155.039062 222.289062 155.203125 C 218.746094 157.597656 215.125 159.886719 210.808594 160.566406 C 208.097656 161.007812 205.375 161.105469 202.640625 160.863281 C 201.148438 160.679688 199.71875 160.898438 198.347656 161.511719 C 195.125 162.996094 191.824219 164.304688 188.699219 166.003906 C 187.863281 166.414062 187.085938 166.917969 186.375 167.523438 C 181.671875 171.824219 176.523438 175.5 170.929688 178.550781 C 165.859375 181.308594 160.8125 184.179688 155.359375 186.195312 C 154.902344 186.367188 154.433594 186.5 153.953125 186.59375 C 153.808594 186.609375 153.675781 186.578125 153.558594 186.496094 C 153.441406 186.414062 153.363281 186.300781 153.328125 186.160156 C 153.285156 186.027344 153.289062 185.894531 153.347656 185.761719 C 153.40625 185.632812 153.503906 185.539062 153.632812 185.480469 C 153.925781 185.332031 154.226562 185.207031 154.539062 185.105469 C 159.5 183.328125 164.019531 180.636719 168.671875 178.234375 C 169.902344 177.566406 170.859375 176.621094 171.550781 175.402344 C 173.558594 172.082031 175.527344 168.757812 177.007812 165.144531 C 177.582031 163.773438 177.847656 162.347656 177.804688 160.859375 C 177.710938 156.488281 178.480469 152.269531 180.113281 148.210938 C 180.902344 146.160156 181.945312 144.242188 183.238281 142.464844 C 183.480469 142.097656 183.757812 141.761719 184.066406 141.453125 C 184.886719 140.722656 185.78125 141.023438 186.023438 142.082031 C 186.078125 142.351562 186.101562 142.621094 186.09375 142.898438 C 185.992188 149.488281 184.761719 155.8125 181.625 161.679688 C 180.75 163.324219 179.738281 164.882812 178.234375 166.050781 C 177.976562 166.257812 177.785156 166.515625 177.667969 166.828125 C 176.726562 169.101562 175.605469 171.289062 174.316406 173.386719 C 174.238281 173.515625 174.113281 173.667969 174.34375 173.859375 C 174.828125 173.855469 175.128906 173.425781 175.507812 173.167969 C 178.984375 170.800781 182.386719 168.324219 185.902344 166.011719 C 188.144531 164.542969 190.015625 162.585938 191.9375 160.726562 C 194.402344 158.386719 196.640625 155.84375 198.660156 153.109375 C 200.871094 150.101562 202.269531 146.753906 202.851562 143.066406 C 203.554688 138.480469 204.125 133.875 204.378906 129.238281 C 204.46875 127.972656 204.328125 126.734375 203.949219 125.523438 C 203.25 123.375 203.21875 121.113281 203.070312 118.878906 C 202.808594 115.277344 202.800781 111.675781 203.042969 108.070312 C 203.046875 107.464844 203.148438 106.878906 203.34375 106.304688 C 203.71875 105.398438 204.40625 105.191406 205.15625 105.808594 C 206.109375 106.527344 206.742188 107.460938 207.054688 108.613281 C 207.589844 110.621094 207.910156 112.664062 208.015625 114.742188 C 208.164062 119.421875 207.605469 124.011719 206.335938 128.515625 C 205.398438 131.742188 205.234375 135.082031 204.78125 138.375 C 204.398438 141.183594 204.273438 144.027344 203.300781 146.859375 C 203.730469 146.769531 204.03125 146.527344 204.203125 146.125 C 206.167969 143.167969 208.300781 140.3125 209.398438 136.867188 C 209.65625 136.203125 209.996094 135.582031 210.410156 135.007812 C 211.585938 133.09375 212.566406 131.082031 213.355469 128.980469 C 215.867188 122.574219 218.347656 116.15625 220.175781 109.507812 C 220.421875 108.613281 220.558594 107.6875 220.8125 106.796875 C 221.457031 104.558594 221.203125 102.363281 220.519531 100.199219 C 219.667969 97.488281 218.75 94.800781 217.867188 92.101562 C 217.730469 91.683594 217.632812 91.238281 217.285156 90.949219 C 215.777344 89.695312 214.773438 88.050781 213.894531 86.363281 C 211.351562 81.46875 208.9375 76.503906 207.066406 71.300781 C 206.609375 70.070312 206.269531 68.804688 206.046875 67.507812 C 205.839844 66.238281 206.167969 65.320312 206.835938 65.03125 C 207.613281 64.695312 208.617188 65.0625 209.398438 66.042969 C 210.253906 67.125 210.921875 68.3125 211.402344 69.605469 C 213.191406 74.304688 215.246094 78.890625 217.320312 83.46875 C 218.28125 85.472656 218.746094 87.585938 218.714844 89.808594 C 218.710938 90.304688 218.792969 90.785156 218.964844 91.25 C 219.808594 93.792969 220.636719 96.335938 221.476562 98.875 C 221.605469 99.152344 221.753906 99.417969 221.921875 99.671875 C 222.144531 98.835938 222.257812 97.988281 222.261719 97.121094 C 222.304688 92.585938 222.34375 88.046875 222.378906 83.515625 C 222.40625 80.144531 221.542969 76.910156 220.898438 73.644531 C 219.421875 66.183594 216.601562 59.222656 213.097656 52.507812 C 212.617188 51.59375 211.84375 51.007812 211.03125 50.453125 C 208.945312 49.042969 206.679688 47.941406 204.464844 46.757812 C 204.003906 46.554688 203.527344 46.480469 203.027344 46.535156 C 199.886719 46.546875 196.832031 46.035156 193.863281 45.003906 C 190.183594 43.777344 186.457031 42.695312 182.960938 40.976562 C 182.148438 40.640625 181.398438 40.199219 180.714844 39.644531 C 179.78125 38.789062 179.953125 37.839844 181.113281 37.34375 C 181.417969 37.214844 181.734375 37.140625 182.066406 37.121094 C 186.203125 36.875 190.253906 37.210938 194.082031 38.992188 C 197.769531 40.675781 201.246094 42.722656 204.507812 45.132812 C 206.480469 46.613281 208.835938 47.433594 210.972656 48.851562 C 211.125 48.265625 210.8125 47.933594 210.632812 47.582031 C 208.800781 44.101562 207.128906 40.519531 205.082031 37.171875 C 202.207031 32.464844 199.082031 27.90625 195.222656 23.910156 C 194.15625 22.804688 192.863281 21.976562 191.601562 21.105469 C 189.355469 19.554688 187.085938 18.035156 184.777344 16.570312 C 179.480469 13.25 174.59375 9.40625 170.117188 5.039062 C 169.636719 4.585938 169.207031 4.09375 168.828125 3.558594 C 168.589844 3.238281 168.476562 2.882812 168.484375 2.484375 C 168.492188 2.085938 168.617188 1.734375 168.867188 1.425781 C 169.421875 0.777344 170.140625 0.777344 170.820312 1.074219 C 173.675781 2.316406 176.558594 3.519531 178.960938 5.578125 C 184.117188 9.992188 189.066406 14.601562 193.402344 19.847656 C 195.054688 21.835938 196.835938 23.710938 198.734375 25.464844 C 198.167969 24.015625 197.644531 22.546875 197.023438 21.117188 C 195.324219 17.347656 194.308594 13.398438 193.980469 9.273438 C 193.9375 8.664062 193.777344 8.027344 194.355469 7.625 C 194.996094 7.179688 195.621094 7.527344 196.191406 7.863281 C 197.242188 8.414062 198.035156 9.222656 198.566406 10.285156 C 199.878906 13.078125 200.699219 16.007812 201.03125 19.074219 C 201.210938 20.621094 201.054688 22.132812 200.558594 23.605469 C 200.230469 24.527344 200.296875 25.417969 200.769531 26.277344 C 202.386719 29.554688 204.011719 32.8125 205.886719 35.96875 C 208.566406 40.46875 210.839844 45.210938 213.246094 49.867188 C 214.375 52.050781 215.375 54.300781 216.480469 56.496094 C 219.292969 62.105469 221.046875 68.0625 222.34375 74.175781 C 222.453125 74.691406 222.394531 75.269531 222.945312 75.726562 C 223.652344 70.078125 224.5625 64.535156 225.550781 59.007812 C 225.699219 58.171875 225.410156 57.378906 225.382812 56.566406 C 225.183594 50.308594 225.378906 44.097656 227.808594 38.1875 C 227.945312 37.769531 228.128906 37.378906 228.359375 37.007812 C 228.917969 36.253906 229.734375 36.257812 230.257812 37.03125 C 230.519531 37.449219 230.707031 37.898438 230.816406 38.378906 C 231.921875 43.035156 231.921875 47.691406 230.8125 52.347656 C 230.277344 54.648438 229.003906 56.554688 227.472656 58.285156 C 227.085938 58.675781 226.835938 59.140625 226.726562 59.679688 C 225.472656 67.277344 224.050781 74.851562 223.707031 82.574219 C 223.617188 84.59375 223.6875 86.613281 223.914062 88.621094 C 224.140625 90.585938 223.910156 92.550781 223.71875 94.5 C 223.394531 97.863281 223.125 101.230469 222.5625 104.574219 C 221.628906 110.160156 219.777344 115.460938 217.886719 120.757812 C 217.121094 122.910156 216.296875 125.039062 215.40625 127.421875 C 215.855469 127.222656 216.214844 126.914062 216.476562 126.5 C 218.566406 123.890625 220.828125 121.445312 223.265625 119.160156 C 225.800781 116.816406 228.066406 114.238281 230.0625 111.417969 C 233.15625 107.113281 237.375 104.101562 241.800781 101.34375 C 242.425781 100.953125 243.113281 100.714844 243.792969 101.207031 C 244.445312 101.6875 244.46875 102.40625 244.398438 103.136719 Z M 91.320312 185.480469 C 91.027344 185.332031 90.726562 185.207031 90.414062 185.105469 C 85.453125 183.328125 80.9375 180.636719 76.28125 178.234375 C 75.050781 177.566406 74.09375 176.621094 73.40625 175.402344 C 71.394531 172.082031 69.425781 168.757812 67.945312 165.144531 C 67.371094 163.773438 67.105469 162.347656 67.148438 160.863281 C 67.242188 156.488281 66.472656 152.269531 64.839844 148.210938 C 64.050781 146.160156 63.007812 144.242188 61.714844 142.464844 C 61.472656 142.101562 61.199219 141.761719 60.886719 141.453125 C 60.070312 140.722656 59.171875 141.023438 58.929688 142.082031 C 58.875 142.351562 58.851562 142.625 58.859375 142.898438 C 58.960938 149.488281 60.191406 155.8125 63.328125 161.683594 C 64.207031 163.324219 65.21875 164.886719 66.71875 166.050781 C 66.980469 166.257812 67.167969 166.515625 67.285156 166.828125 C 68.230469 169.101562 69.347656 171.289062 70.636719 173.386719 C 70.714844 173.515625 70.839844 173.667969 70.613281 173.859375 C 70.128906 173.855469 69.824219 173.429688 69.445312 173.167969 C 65.96875 170.800781 62.570312 168.328125 59.050781 166.015625 C 56.808594 164.542969 54.941406 162.585938 53.019531 160.726562 C 50.554688 158.386719 48.3125 155.847656 46.296875 153.109375 C 44.085938 150.101562 42.6875 146.753906 42.101562 143.066406 C 41.398438 138.480469 40.828125 133.878906 40.574219 129.238281 C 40.484375 127.972656 40.628906 126.738281 41.003906 125.527344 C 41.703125 123.375 41.734375 121.113281 41.882812 118.882812 C 42.144531 115.277344 42.152344 111.675781 41.910156 108.074219 C 41.90625 107.46875 41.808594 106.878906 41.609375 106.304688 C 41.234375 105.402344 40.550781 105.191406 39.800781 105.8125 C 38.847656 106.527344 38.214844 107.460938 37.902344 108.613281 C 37.363281 110.625 37.042969 112.667969 36.9375 114.746094 C 36.789062 119.421875 37.347656 124.011719 38.621094 128.515625 C 39.554688 131.742188 39.71875 135.085938 40.171875 138.378906 C 40.554688 141.183594 40.679688 144.027344 41.652344 146.859375 C 41.222656 146.773438 40.921875 146.527344 40.75 146.125 C 38.785156 143.171875 36.652344 140.3125 35.554688 136.867188 C 35.296875 136.207031 34.960938 135.585938 34.542969 135.007812 C 33.367188 133.09375 32.386719 131.085938 31.597656 128.980469 C 29.085938 122.574219 26.609375 116.15625 24.777344 109.507812 C 24.53125 108.613281 24.398438 107.691406 24.140625 106.800781 C 23.496094 104.5625 23.75 102.363281 24.433594 100.199219 C 25.289062 97.488281 26.203125 94.800781 27.085938 92.101562 C 27.222656 91.683594 27.320312 91.238281 27.671875 90.949219 C 29.175781 89.695312 30.179688 88.050781 31.058594 86.363281 C 33.601562 81.46875 36.015625 76.503906 37.886719 71.300781 C 38.34375 70.070312 38.6875 68.804688 38.910156 67.511719 C 39.113281 66.238281 38.789062 65.324219 38.121094 65.035156 C 37.34375 64.699219 36.339844 65.0625 35.554688 66.046875 C 34.699219 67.128906 34.03125 68.316406 33.550781 69.609375 C 31.765625 74.304688 29.707031 78.890625 27.632812 83.46875 C 26.671875 85.472656 26.207031 87.585938 26.238281 89.808594 C 26.242188 90.304688 26.160156 90.785156 25.992188 91.25 C 25.148438 93.792969 24.320312 96.335938 23.476562 98.878906 C 23.347656 99.152344 23.199219 99.417969 23.03125 99.675781 C 22.808594 98.839844 22.695312 97.988281 22.691406 97.125 C 22.648438 92.585938 22.609375 88.050781 22.574219 83.515625 C 22.546875 80.148438 23.414062 76.910156 24.058594 73.648438 C 25.53125 66.1875 28.351562 59.222656 31.859375 52.511719 C 32.335938 51.59375 33.113281 51.007812 33.925781 50.453125 C 36.007812 49.042969 38.273438 47.941406 40.488281 46.757812 C 40.949219 46.554688 41.429688 46.480469 41.925781 46.535156 C 45.070312 46.546875 48.125 46.035156 51.09375 45.003906 C 54.769531 43.777344 58.496094 42.695312 61.992188 40.976562 C 62.804688 40.640625 63.554688 40.199219 64.242188 39.644531 C 65.175781 38.789062 65.003906 37.839844 63.839844 37.347656 C 63.535156 37.21875 63.21875 37.140625 62.890625 37.121094 C 58.753906 36.875 54.703125 37.210938 50.875 38.992188 C 47.183594 40.675781 43.707031 42.722656 40.445312 45.132812 C 38.476562 46.613281 36.121094 47.4375 33.984375 48.855469 C 33.828125 48.265625 34.140625 47.933594 34.320312 47.582031 C 36.152344 44.101562 37.824219 40.523438 39.871094 37.171875 C 42.746094 32.464844 45.875 27.90625 49.730469 23.914062 C 50.800781 22.808594 52.089844 21.976562 53.351562 21.105469 C 55.597656 19.554688 57.867188 18.035156 60.175781 16.574219 C 65.476562 13.25 70.363281 9.40625 74.835938 5.039062 C 75.316406 4.585938 75.746094 4.09375 76.125 3.558594 C 76.363281 3.238281 76.476562 2.882812 76.46875 2.484375 C 76.460938 2.085938 76.335938 1.734375 76.085938 1.425781 C 75.53125 0.777344 74.8125 0.777344 74.132812 1.074219 C 71.277344 2.316406 68.398438 3.519531 65.992188 5.578125 C 60.839844 9.992188 55.886719 14.601562 51.550781 19.847656 C 49.898438 21.835938 48.121094 23.710938 46.21875 25.464844 C 46.785156 24.015625 47.3125 22.546875 47.929688 21.117188 C 49.628906 17.347656 50.644531 13.398438 50.972656 9.273438 C 51.015625 8.664062 51.175781 8.027344 50.597656 7.625 C 49.957031 7.179688 49.332031 7.527344 48.761719 7.863281 C 47.710938 8.414062 46.917969 9.222656 46.386719 10.285156 C 45.074219 13.078125 44.253906 16.007812 43.921875 19.074219 C 43.742188 20.621094 43.898438 22.132812 44.394531 23.605469 C 44.722656 24.527344 44.65625 25.417969 44.183594 26.277344 C 42.566406 29.554688 40.941406 32.8125 39.066406 35.96875 C 36.386719 40.46875 34.113281 45.210938 31.710938 49.867188 C 30.582031 52.050781 29.578125 54.300781 28.472656 56.496094 C 25.660156 62.105469 23.90625 68.0625 22.609375 74.175781 C 22.5 74.691406 22.558594 75.269531 22.011719 75.726562 C 21.300781 70.078125 20.390625 64.535156 19.402344 59.007812 C 19.253906 58.171875 19.542969 57.378906 19.570312 56.566406 C 19.773438 50.308594 19.574219 44.097656 17.144531 38.1875 C 17.007812 37.769531 16.824219 37.378906 16.59375 37.007812 C 16.035156 36.253906 15.21875 36.257812 14.695312 37.03125 C 14.433594 37.449219 14.246094 37.898438 14.140625 38.378906 C 13.03125 43.035156 13.03125 47.691406 14.140625 52.347656 C 14.675781 54.648438 15.949219 56.554688 17.480469 58.285156 C 17.867188 58.675781 18.117188 59.140625 18.230469 59.679688 C 19.480469 67.277344 20.902344 74.851562 21.246094 82.574219 C 21.335938 84.59375 21.269531 86.613281 21.039062 88.621094 C 20.8125 90.585938 21.046875 92.550781 21.234375 94.5 C 21.558594 97.863281 21.828125 101.230469 22.390625 104.574219 C 23.324219 110.160156 25.175781 115.460938 27.066406 120.757812 C 27.835938 122.910156 28.65625 125.039062 29.546875 127.421875 C 29.097656 127.222656 28.742188 126.914062 28.476562 126.5 C 26.386719 123.890625 24.125 121.445312 21.6875 119.160156 C 19.152344 116.816406 16.886719 114.238281 14.890625 111.417969 C 11.796875 107.113281 7.578125 104.101562 3.152344 101.34375 C 2.527344 100.953125 1.839844 100.714844 1.164062 101.207031 C 0.507812 101.6875 0.484375 102.40625 0.554688 103.136719 C 0.671875 103.957031 0.929688 104.730469 1.324219 105.460938 C 2.503906 107.9375 4.332031 109.875 6.507812 111.496094 C 9.09375 113.464844 11.933594 114.960938 15.019531 115.988281 C 16.695312 116.558594 18.160156 117.46875 19.410156 118.722656 C 23.414062 122.542969 27.085938 126.65625 30.433594 131.058594 C 31.289062 132.199219 32.011719 133.417969 32.601562 134.714844 C 35.660156 141.230469 39.523438 147.234375 44.191406 152.71875 C 47 156.066406 49.765625 159.457031 52.933594 162.484375 C 52.878906 162.578125 52.824219 162.667969 52.765625 162.761719 C 51.074219 162.039062 49.394531 161.277344 47.6875 160.589844 C 44.640625 159.371094 41.789062 157.792969 39.132812 155.863281 C 35.320312 153.089844 30.824219 152.402344 26.289062 151.921875 C 25.308594 151.816406 24.328125 151.710938 23.347656 151.671875 C 22.613281 151.640625 21.917969 151.828125 21.554688 152.566406 C 21.152344 153.386719 21.535156 154.042969 22.070312 154.644531 C 22.246094 154.851562 22.445312 155.039062 22.664062 155.203125 C 26.207031 157.597656 29.832031 159.886719 34.144531 160.566406 C 36.855469 161.007812 39.578125 161.105469 42.3125 160.863281 C 43.804688 160.679688 45.234375 160.898438 46.605469 161.511719 C 49.828125 162.996094 53.128906 164.304688 56.253906 166.003906 C 57.09375 166.414062 57.867188 166.917969 58.578125 167.523438 C 63.28125 171.824219 68.429688 175.5 74.023438 178.550781 C 79.09375 181.308594 84.144531 184.179688 89.59375 186.195312 C 90.050781 186.367188 90.523438 186.5 91.003906 186.59375 C 91.144531 186.609375 91.277344 186.578125 91.394531 186.496094 C 91.515625 186.414062 91.589844 186.300781 91.628906 186.160156 C 91.671875 186.027344 91.664062 185.894531 91.605469 185.761719 C 91.546875 185.632812 91.453125 185.539062 91.320312 185.480469 Z M 91.320312 185.480469" fill="#ffd700"/></g><g clip-path="url(#ce4c0c0595)"><path fill-rule="nonzero" fill-opacity="1" d="M 194.625 65.183594 C 194.542969 58.878906 194.296875 53.679688 194.054688 50.121094 C 194.011719 49.21875 193.234375 48.484375 192.332031 48.484375 C 187.625 48.359375 183.328125 46.476562 180.054688 43.488281 C 176.777344 40.460938 174.527344 36.324219 173.871094 31.660156 L 173.832031 31.496094 C 173.625 30.636719 173.503906 29.695312 173.460938 28.710938 C 173.378906 27.769531 172.601562 27.03125 171.621094 27.074219 C 170.761719 27.113281 169.859375 27.15625 169.042969 27.15625 C 167.117188 27.15625 164.335938 26.5 161.058594 25.394531 C 156.148438 23.800781 150.128906 21.300781 143.539062 19.214844 C 136.949219 17.085938 129.785156 15.367188 122.5 15.367188 C 112.796875 15.367188 103.257812 18.394531 95.070312 21.34375 C 90.976562 22.816406 87.210938 24.289062 83.9375 25.355469 C 80.664062 26.417969 77.878906 27.113281 75.957031 27.113281 C 75.09375 27.113281 74.234375 27.074219 73.375 27.03125 C 72.433594 26.992188 71.617188 27.730469 71.535156 28.671875 C 71.453125 29.652344 71.371094 30.59375 71.164062 31.453125 L 71.125 31.617188 C 70.46875 36.285156 68.21875 40.460938 64.945312 43.449219 C 61.667969 46.476562 57.371094 48.320312 52.664062 48.441406 C 51.761719 48.484375 51.027344 49.179688 50.945312 50.078125 C 50.699219 53.640625 50.453125 58.839844 50.371094 65.144531 C 50.246094 73.617188 50.042969 82.253906 50.042969 90.851562 C 50.042969 109.597656 50.984375 128.140625 56.0625 144.515625 C 58.597656 152.703125 62.160156 160.316406 67.195312 167.113281 C 72.1875 173.90625 78.65625 179.84375 86.886719 184.59375 C 100.3125 192.371094 108.988281 197.648438 114.269531 201.007812 C 116.929688 202.683594 118.730469 203.871094 119.878906 204.648438 C 120.453125 205.019531 120.859375 205.304688 121.105469 205.46875 C 121.230469 205.550781 121.3125 205.632812 121.394531 205.671875 L 121.476562 205.714844 C 122.089844 206.164062 122.949219 206.164062 123.5625 205.714844 C 123.972656 205.429688 132.078125 199.65625 158.113281 184.59375 C 166.339844 179.84375 172.808594 173.90625 177.800781 167.113281 C 185.332031 156.917969 189.589844 144.84375 192.007812 131.828125 C 194.421875 118.808594 194.953125 104.851562 194.953125 90.808594 C 194.953125 82.253906 194.75 73.617188 194.625 65.183594 Z M 185.578125 143.453125 C 183.125 151.351562 179.726562 158.597656 174.976562 165.023438 C 170.230469 171.453125 164.171875 177.019531 156.351562 181.523438 C 134.695312 194.046875 125.363281 200.1875 122.5 202.113281 C 119.632812 200.148438 110.300781 194.007812 88.644531 181.523438 C 80.828125 176.976562 74.769531 171.410156 70.019531 165.023438 C 62.898438 155.40625 58.804688 143.863281 56.46875 131.210938 C 54.136719 118.5625 53.605469 104.808594 53.605469 90.851562 C 53.605469 82.335938 53.808594 73.699219 53.933594 65.226562 C 54.015625 59.820312 54.21875 55.277344 54.421875 51.878906 C 59.335938 51.390625 63.796875 49.261719 67.316406 46.066406 C 71.164062 42.507812 73.828125 37.675781 74.605469 32.148438 C 74.726562 31.660156 74.808594 31.125 74.890625 30.59375 C 75.257812 30.59375 75.585938 30.59375 75.957031 30.59375 C 78.617188 30.59375 81.644531 29.777344 85.042969 28.671875 C 90.160156 26.992188 96.136719 24.535156 102.523438 22.488281 C 108.949219 20.441406 115.785156 18.847656 122.5 18.847656 C 131.464844 18.847656 140.632812 21.671875 148.738281 24.617188 C 152.789062 26.089844 156.554688 27.523438 159.996094 28.671875 C 163.390625 29.777344 166.421875 30.59375 169.082031 30.59375 C 169.449219 30.59375 169.820312 30.59375 170.148438 30.59375 C 170.230469 31.125 170.3125 31.617188 170.433594 32.148438 C 171.210938 37.636719 173.871094 42.507812 177.71875 46.066406 C 181.199219 49.261719 185.703125 51.390625 190.65625 51.878906 C 190.859375 55.277344 191.066406 59.820312 191.148438 65.226562 C 191.269531 73.699219 191.472656 82.296875 191.472656 90.851562 C 191.433594 109.433594 190.449219 127.691406 185.578125 143.453125 Z M 185.578125 143.453125" fill="#ffd700"/></g><g transform="matrix(1, 0, 0, 1, 70, 60)"><g clip-path="url(#efceef3854)"><g fill-opacity="1" fill="#ffd700"><g transform="translate(0.26956, 81.141114)"><g><path d="M 21.875 0.8125 C 16.5625 0.8125 12.222656 -0.757812 8.859375 -3.90625 C 5.503906 -7.050781 3.828125 -11.523438 3.828125 -17.328125 L 3.828125 -20.578125 L 11.46875 -20.578125 L 11.46875 -17.328125 C 11.46875 -13.609375 12.421875 -10.769531 14.328125 -8.8125 C 16.242188 -6.863281 18.757812 -5.890625 21.875 -5.890625 C 25 -5.890625 27.515625 -6.863281 29.421875 -8.8125 C 31.335938 -10.769531 32.296875 -13.609375 32.296875 -17.328125 L 32.296875 -60.609375 L 39.90625 -60.609375 L 39.90625 -17.328125 C 39.90625 -11.523438 38.234375 -7.050781 34.890625 -3.90625 C 31.554688 -0.757812 27.21875 0.8125 21.875 0.8125 Z M 21.875 0.8125"/></g></g></g><g fill-opacity="1" fill="#ffd700"><g transform="translate(47.164714, 81.141114)"><g><path d="M 12.25 -17.328125 L 12.25 -25.875 C 13.625 -27.71875 15.003906 -29.476562 16.390625 -31.15625 C 17.773438 -32.832031 19.1875 -34.488281 20.625 -36.125 C 22.0625 -37.769531 23.523438 -39.394531 25.015625 -41 L 43.1875 -60.609375 L 53.203125 -60.609375 L 27.328125 -32.90625 L 26.921875 -32.9375 Z M 7.03125 0 L 7.03125 -60.609375 L 14.6875 -60.609375 L 14.6875 -39.78125 L 14.5625 -26.765625 L 14.6875 -23.015625 L 14.6875 0 Z M 44.203125 0 L 22.203125 -30.90625 L 26.921875 -36.84375 L 53.234375 0 Z M 44.203125 0"/></g></g></g></g></g></g></g></svg>